<svg xmlns="http://www.w3.org/2000/svg" viewBox="0 0 512 450.16"><defs><style>.cls-1{fill:#cad300;}.cls-2{fill:#0098d7;}.cls-3{fill:#f9b222;}.cls-4{fill:#e42219;}.cls-5{fill:none;}</style></defs><g id="Layer_2" data-name="Layer 2"><g id="Layer_1-2" data-name="Layer 1"><path class="cls-1" d="M108.21,286l22.17,2.56v2.81l-50,50V330.9A115.52,115.52,0,0,1,0,220.65V115.82A116,116,0,0,1,87.94,3.37l46.68,46.68h-19a65.75,65.75,0,0,0-65.59,65.77V220.66A65.67,65.67,0,0,0,108.21,286Z"/><path class="cls-2" d="M419.38,2.32,371.65,50.05h-237L87.94,3.37A115.32,115.32,0,0,1,115.67,0H396.33A115.22,115.22,0,0,1,419.38,2.32Z"/><path class="cls-3" d="M418.84,334.27a115.17,115.17,0,0,1-22.51,2.21H222.24L80.35,450.16V341.35l50-50v54.62l74.26-59.49H371Z"/><path class="cls-4" d="M512,115.82V220.66a116,116,0,0,1-93.16,113.61L371,286.45h25.31A65.81,65.81,0,0,0,462,220.65V115.82a65.77,65.77,0,0,0-65.62-65.77H371.65L419.38,2.32A116,116,0,0,1,512,115.82Z"/><line class="cls-5" x1="419.4" y1="334.83" x2="418.84" y2="334.27"/></g></g></svg>