<svg xmlns="http://www.w3.org/2000/svg" viewBox="0 0 493.44 466.23"><defs><style>.cls-1{fill:#cad300;}.cls-2{fill:#0098d7;}.cls-3{fill:#e42219;}.cls-4{fill:#f9b222;}</style></defs><g id="Layer_2" data-name="Layer 2"><g id="Layer_1-2" data-name="Layer 1"><path class="cls-1" d="M129.08,169a253.45,253.45,0,0,1,51-64c21.16-19,41.34-30.53,58-40,19.65-11.17,38.22-19.54,57-28,14.23-6.41,26.29-11.46,35-15a154,154,0,0,0-32-7,167.81,167.81,0,0,0-34,0c-10.6.86-25.09,2.05-41,7-10.93,3.41-39.09,12.58-61,39-14.85,17.92-20.15,35.72-25,52A193.26,193.26,0,0,0,129.08,169Z"/><path class="cls-2" d="M478.08,129a81.64,81.64,0,0,0,13-28,84.91,84.91,0,0,0,2-28c-.51-7.31-1.45-19-8-32a57.55,57.55,0,0,0-13-18c-6.63-6.05-13.3-8.78-21-12a117.21,117.21,0,0,0-19-6,168.91,168.91,0,0,0-25-4c-9.88-1-17.92-1-34-1-12.45,0-17.63.32-23,1a137.77,137.77,0,0,0-16,3c4,1.61,9.89,4,17,7,18.38,7.72,27.52,11.68,36,16a185.59,185.59,0,0,1,31,20,184.24,184.24,0,0,1,31,30A175.73,175.73,0,0,1,478.08,129Z"/><path class="cls-3" d="M21.08,431c1.89,1.27,4.62,3,8,5a119.78,119.78,0,0,0,27,12c9.93,2.9,17.63,3.46,25,4a138.72,138.72,0,0,0,32-1c3.46-.52,14.24-2.31,34-10a302.84,302.84,0,0,0,40-19c41.76-23.67,76.38-48.27,83-53,17.93-12.8,39.31-28.15,66-51a700.43,700.43,0,0,0,52-49c23.56-24.69,33.59-39,37-44,17.71-25.89,22.69-42.39,24-47a131.09,131.09,0,0,0,5-34,188.24,188.24,0,0,1,16,29c9.38,21.21,12.45,38.78,15,54,3.25,19.34,5.94,35.34,4,57a187.33,187.33,0,0,1-15,57c-14.89,34.19-35.67,54.8-40,59-23.53,22.85-47.34,32.95-62,39-23.39,9.66-41.54,12.46-71,17-14.41,2.22-37.47,3.85-83,7-33.34,2.31-59.28,3.82-90,3,0,0-15.63-.42-37-3a196.4,196.4,0,0,1-41-9c-7.65-2.62-14.62-5.61-21-12A44.89,44.89,0,0,1,21.08,431Z"/><path class="cls-4" d="M229.08,358c-5.2,4-12.7,9.66-22,16-19.15,13.06-36.22,24.71-60,34-14,5.46-33.18,12.77-59,13-12.15.11-24.5.09-39-6a82,82,0,0,1-38-33c-15.27-25.68-10.94-52.09-9-64,1.51-9.23,5-18.49,12-37a359.77,359.77,0,0,1,19-43c7.66-14.52,14.23-24.36,24-39,10.57-15.83,19.53-27.76,28-39,8.34-11.07,15.58-20.25,21-27,.18,5.45.47,13.4,1,23,1,17.73,1.63,29.33,3,38,2.44,15.36,8.63,26.57,21,49a324,324,0,0,0,38,55c6.57,7.57,13.72,14.71,28,29C210.21,340.13,221.33,350.73,229.08,358Z"/></g></g></svg>