<svg xmlns="http://www.w3.org/2000/svg" viewBox="0 0 1279.44 1125.77"><defs><style>.cls-1{fill:#a80000;}</style></defs><g id="Layer_1" data-name="Layer 1"><path class="cls-1" d="M620.14,1.88a89.32,89.32,0,0,0-16,6.1c-7,3.5-10.5,6.2-18.7,14.4-6.1,6-12.4,13.4-15.7,18.5-8.5,13.2-68.1,118.2-296.2,521.5-79.3,140.2-171.4,303.2-204.7,362s-61.7,109.8-63.1,113.1c-7.9,18.7-7.2,39.4,1.9,55.9,1.5,2.8,6.4,8.6,10.8,13,9.1,9,17.7,13.9,30.6,17.5l7.6,2,587.9-.2,588-.3,8.1-2.7c36.3-12.4,49.4-49.9,30.4-87.8-2.1-4.3-89.9-158-195.1-341.7s-230.8-402.9-279.1-487.3-90.9-158-94.6-163.5c-11.8-17.7-26.8-31.1-41.9-37.3A66,66,0,0,0,620.14,1.88Zm160.7,341c79.3,138.3,201.9,352.3,272.4,475.5l128.3,224-271.2.3c-149.2.1-393.4.1-542.7,0l-271.5-.3,166.6-294.5c318.8-563.7,372.5-658.3,373.4-657.2C636.54,91.08,701.64,204.58,780.84,342.88Z" transform="translate(-0.28 -0.12)"/><path class="cls-1" d="M629,338.48c-1.4.3-6.1,1.4-10.4,2.5-39,9.8-70.6,47.4-70.6,83.7,0,4.6,2.2,25.4,5,46.1s11.3,85.7,19,144.6c20.1,153.5,19.9,151.7,21.6,158.1,4.2,16.5,14.1,29.7,27.1,36.1,6.7,3.3,8.6,3.8,16.8,4.1,15.2.7,24.6-3,34.8-13.6,9.9-10.5,14.4-22.4,17.6-46.4,1.1-8.4,6.1-46.2,11.1-84.1s13.1-99.6,18-137.5,10-75.6,11.1-84c2.4-18.2,2.5-30.5.4-38.7-8.2-32.3-36-59.9-69.3-68.6C653.74,338.78,634.64,337.48,629,338.48Z" transform="translate(-0.28 -0.12)"/><path class="cls-1" d="M632.24,852c-34.5,4.4-59.4,37.1-55.2,72.6,2,16.6,8.6,30.1,20.4,41,11.4,10.7,23.7,16,39.1,17,18.7,1.1,33.6-4.7,47.5-18.7,13.4-13.4,19.2-27.3,19.3-46.5.1-11.6-1.3-18.3-5.8-28C685.54,863.28,659.64,848.48,632.24,852Z" transform="translate(-0.28 -0.12)"/></g></svg>